<svg xmlns="http://www.w3.org/2000/svg" viewBox="0 0 64.07 40.8"><defs><style>.cls-1{fill:#666;}</style></defs><g id="Layer_2" data-name="Layer 2"><g id="Capa_1" data-name="Capa 1"><path class="cls-1" d="M58.39,16.79H57.05v-1.2c0-1.7,0-3.4,0-5.11,0-.27-.29-.78-.46-.78-1.56-.06-3.12,0-4.76,0v7.11H44.67c0,.54,0,.9,0,1.25,0,1.29.11,2.58.17,3.87,1.26,0,2.52.1,3.78.13,1.05,0,2.1,0,3.27,0v7H57V22h7V16.79Z"/><path class="cls-1" d="M38.19,16.19c-4.45.06-8.9,0-13.34,0-1.27,0-2.54,0-3.81,0-.24,0-.67.3-.67.47-.05,2.56,0,5.12,0,7.82H31.22c-.14.53-.23.91-.36,1.28-1.67,5-6.78,7.41-12.26,6.51A12,12,0,0,1,8.76,18.07a11.53,11.53,0,0,1,.87-2.74A12,12,0,0,1,23,8.58a11.53,11.53,0,0,1,5.12,2.65l6-6-.5-.39A19.57,19.57,0,0,0,17,.31,20.35,20.35,0,0,0,.3,16.94,20,20,0,0,0,1.38,27.72a20.51,20.51,0,0,0,21.44,13,18.38,18.38,0,0,0,11.81-5.54c4.68-5,5.89-11,5.14-17.65C39.65,16.39,39.2,16.18,38.19,16.19Z"/></g></g></svg>