<svg id="Layer_1" data-name="Layer 1" xmlns="http://www.w3.org/2000/svg" xmlns:xlink="http://www.w3.org/1999/xlink" viewBox="0 0 95.03 96.39"><defs><style>.cls-1{fill:url(#linear-gradient);}.cls-2{fill:none;stroke:#fff;stroke-miterlimit:10;stroke-width:7px;}</style><linearGradient id="linear-gradient" x1="199.09" y1="337.73" x2="268.98" y2="276.78" gradientUnits="userSpaceOnUse"><stop offset="0.01" stop-color="#fbc400"/><stop offset="0.25" stop-color="#ed7353"/><stop offset="0.45" stop-color="#ec7898"/><stop offset="0.86" stop-color="#4e338d"/></linearGradient></defs><path class="cls-1" d="M283.32,344.61c0,5.14-4.48,9.3-10,9.3h-75c-5.52,0-10-4.16-10-9.3V266.82c0-5.13,4.48-9.3,10-9.3h75c5.51,0,10,4.17,10,9.3Z" transform="translate(-188.28 -257.52)"/><rect class="cls-2" x="15.73" y="19.57" width="62.53" height="62.47" rx="9.01"/><path class="cls-2" d="M249.33,308.33a14.05,14.05,0,1,1-14.05-14.05A14,14,0,0,1,249.33,308.33Z" transform="translate(-188.28 -257.52)"/><path class="cls-2" d="M255.82,289.78a.61.61,0,0,1-1.22,0,.61.61,0,0,1,1.22,0Z" transform="translate(-188.28 -257.52)"/></svg>