<svg xmlns="http://www.w3.org/2000/svg" viewBox="0 0 73.42 53.84"><defs><style>.cls-1{fill:#f72121;}</style></defs><g id="Layer_2" data-name="Layer 2"><g id="Capa_1" data-name="Capa 1"><path class="cls-1" d="M72.69,11.61S72,6.33,69.77,4A10.3,10.3,0,0,0,62.42.77C52.14,0,36.73,0,36.73,0h0S21.28,0,11,.77A10.32,10.32,0,0,0,3.65,4C1.45,6.34.74,11.62.74,11.62A119.59,119.59,0,0,0,0,24v5.8A119.59,119.59,0,0,0,.74,42.2s.71,5.28,2.91,7.6c2.8,3.05,6.47,3,8.1,3.27,5.87.59,25,.77,25,.77s15.43,0,25.71-.79a10.28,10.28,0,0,0,7.35-3.25c2.2-2.32,2.92-7.6,2.92-7.6a121.2,121.2,0,0,0,.73-12.39V24A121.53,121.53,0,0,0,72.69,11.61ZM49,26.14,29.13,36.85V15.34l8.94,4.87Z"/></g></g></svg>